<svg xmlns="http://www.w3.org/2000/svg" viewBox="0 0 800 600" fill="none">
    <rect width="800" height="600" fill="#ffffff" />
    <circle cx="400" cy="300" r="250" fill="#f0f4f8" />

    <line x1="100" y1="550" x2="700" y2="550" stroke="#e1e4e8" stroke-width="4"
        stroke-linecap="round" />

    <g transform="translate(380, 150)">
        <rect x="0" y="0" width="300" height="320" rx="15" fill="#007bff" />
        <rect x="0" y="0" width="300" height="320" rx="15" fill="url(#grad1)" opacity="0.1" />

        <rect x="40" y="100" width="220" height="40" rx="4" fill="white" />
        <circle cx="100" cy="120" r="3" fill="#333" />
        <circle cx="120" cy="120" r="3" fill="#333" />
        <circle cx="140" cy="120" r="3" fill="#333" />
        <circle cx="160" cy="120" r="3" fill="#333" />
        <circle cx="180" cy="120" r="3" fill="#333" />
        <circle cx="200" cy="120" r="3" fill="#333" />

        <rect x="40" y="160" width="220" height="40" rx="4" fill="white" />
        <circle cx="70" cy="180" r="3" fill="#333" />
        <circle cx="90" cy="180" r="3" fill="#333" />
        <circle cx="110" cy="180" r="3" fill="#333" />
        <circle cx="130" cy="180" r="3" fill="#333" />
        <circle cx="150" cy="180" r="3" fill="#333" />
        <circle cx="170" cy="180" r="3" fill="#333" />
        <circle cx="190" cy="180" r="3" fill="#333" />
        <circle cx="210" cy="180" r="3" fill="#333" />

        <rect x="40" y="230" width="220" height="40" rx="4" fill="#0056b3" />

        <g transform="translate(150, 0)">
            <circle cx="0" cy="0" r="50" fill="#dc3545" stroke="white" stroke-width="4" />
            <line x1="-20" y1="-20" x2="20" y2="20" stroke="white" stroke-width="6"
                stroke-linecap="round" />
            <line x1="20" y1="-20" x2="-20" y2="20" stroke="white" stroke-width="6"
                stroke-linecap="round" />
        </g>
    </g>

    <g transform="translate(200, 200)">
        <path d="M60 200 L60 350" stroke="#0056b3" stroke-width="24" stroke-linecap="round" />
        <path d="M100 200 L110 350" stroke="#0056b3" stroke-width="24" stroke-linecap="round" />

        <path d="M48 350 L75 350 L75 360 L48 360 Z" fill="#333" />
        <path d="M98 350 L125 350 L125 360 L98 360 Z" fill="#333" />

        <path d="M40 200 L120 200 L110 80 L50 80 Z" fill="#ff8c00" />

        <path d="M110 90 L150 70 L130 30" stroke="#ffdbac" stroke-width="18" stroke-linecap="round"
            fill="none" />
        <circle cx="130" cy="30" r="10" fill="#ffdbac" />

        <path d="M50 90 L30 150" stroke="#ffdbac" stroke-width="18" stroke-linecap="round" />
        <circle cx="30" cy="155" r="10" fill="#ffdbac" />

        <circle cx="80" cy="50" r="35" fill="#ffdbac" />

        <path
            d="M80 15 C 50 15, 30 40, 30 70 C 30 100, 50 130, 80 130 L 90 130 L 90 80 L 115 50 C 115 30, 100 15, 80 15 Z"
            fill="#212529" />
    </g>

    <g transform="translate(150, 100)">
        <circle cx="0" cy="0" r="40" fill="white" stroke="#333" stroke-width="3" />
        <circle cx="50" cy="-10" r="30" fill="white" stroke="#333" stroke-width="3" />
        <circle cx="-30" cy="20" r="20" fill="white" stroke="#333" stroke-width="3" />
        <circle cx="40" cy="60" r="8" fill="white" stroke="#333" stroke-width="2" />
        <circle cx="60" cy="90" r="5" fill="white" stroke="#333" stroke-width="2" />

        <circle cx="0" cy="0" r="38" fill="white" />
        <circle cx="50" cy="-10" r="28" fill="white" />
        <circle cx="-30" cy="20" r="18" fill="white" />

        <g transform="translate(-10, -5) rotate(-45)">
            <circle cx="0" cy="0" r="12" fill="none" stroke="#007bff" stroke-width="4" />
            <rect x="12" y="-4" width="30" height="8" fill="#007bff" />
            <rect x="30" y="4" width="6" height="8" fill="#007bff" />
            <rect x="22" y="4" width="6" height="8" fill="#007bff" />
        </g>
    </g>

    <g transform="translate(650, 480)">
        <path d="M0 0 Q-30 -60 -60 -40 Q-30 -20 0 0" fill="#28a745" />
        <path d="M0 0 Q30 -70 60 -50 Q30 -20 0 0" fill="#20c997" />
        <path d="M0 0 Q0 -90 -20 -100 Q-10 -50 0 0" fill="#1e7e34" />

        <path d="M-25 0 L25 0 L20 40 L-20 40 Z" fill="#fd7e14" />
        <rect x="-30" y="-10" width="60" height="10" rx="2" fill="#e8590c" />
    </g>

    <defs>
        <linearGradient id="grad1" x1="0%" y1="0%" x2="0%" y2="100%">
            <stop offset="0%" style="stop-color:rgb(255,255,255);stop-opacity:0.5" />
            <stop offset="100%" style="stop-color:rgb(0,0,0);stop-opacity:0" />
        </linearGradient>
    </defs>
</svg>