<?xml version="1.0" encoding="utf-8" ?><svg xmlns="http://www.w3.org/2000/svg" xmlns:xlink="http://www.w3.org/1999/xlink" width="1024" height="773" viewBox="0 0 1024 773"><path fill="white" transform="matrix(1.65161 0 0 1.65171 0 -3.05176e-05)" d="M0 0L620 0L620 468L0 468L0 0Z"/><path fill="white" transform="matrix(1.65161 0 0 1.65171 0 -3.05176e-05)" d="M200.94 215.879C201.511 216.678 201.921 216.713 203.056 216.871C223.403 219.698 241.758 230.553 253.955 247.305C258.015 252.878 261.32 258.965 263.783 265.406C266.448 262.826 270.638 259.813 273.762 257.805C290.184 247.252 306.924 242.869 326.268 242.97C336.196 243.356 347.381 245.22 356.658 248.922L355.984 249.833C370.022 255.435 383.249 263.974 392.93 275.719C393.704 276.559 394.461 276.526 395.668 276.698L395.68 271.521C402.086 270.915 411.616 270.48 417.569 268.981C419.651 276.941 422.079 285.595 423.885 293.552C418.933 294.082 410.4 295.299 405.416 296.154L406.249 296.497C406.366 297.037 406.427 296.822 406.253 297.23C410.833 299.2 414.85 324.172 415.342 329.602C415.636 330.252 415.814 330.843 416.354 331.283C420.909 331.091 425.596 331.117 430.163 331.152C447.999 331.289 465.89 330.966 483.72 331.176L485.063 331.183L496.406 331.183C496.416 324.267 496.144 322.966 498.206 316.327C499.682 304.437 496.88 295.535 503.434 283.405C504.797 281.803 512.013 277.64 514.108 276.606L514.922 275.459C530.413 271.299 534.188 268.376 534.913 251.884C535.452 239.634 539.024 226.783 552.276 223.7C561.138 221.186 569.334 222.4 577.878 220.836C583.638 231.749 592.977 245.016 589.329 257.181C585.218 270.889 567.032 274.921 563.088 285.654C558.3 298.686 572.413 306.707 563.154 321.196C556.726 331.256 537.951 337.91 535.868 344.773C532.078 357.261 542.582 365.17 534.666 382.552C540.515 382.543 547.5 382.369 553.253 382.638C553.298 385.459 553.706 396.469 552.893 398.496L552.476 398.287C552.121 399.041 552.109 399.247 551.963 400.04L551.955 415.357C552.555 416.147 552.168 415.875 553.213 416.113C553.389 419.697 553.374 423.287 553.167 426.869C546.481 427.475 533.966 427.117 527.025 427.113L479.1 427.108L439.641 427.118C425.757 427.137 409.277 428.976 398.118 419.21C392.685 414.456 389.639 409.753 387.479 402.865C371.7 418.666 346.327 428.419 324.136 428.188C307.778 428.017 296.602 424.828 282.036 418.188C272.901 429.119 259.879 427.102 247.025 427.098L215.579 427.097L172.732 427.124C164.97 427.127 155.266 427.359 147.649 426.946C146.436 427.159 141.9 430.688 140.691 431.588C140.702 429.978 140.791 428.528 140.412 426.962C137.719 427.063 134.304 426.94 131.678 427.116C115.011 428.229 98.2768 425.418 96.0058 405.555C95.4619 400.798 96.8889 396.786 98.9668 392.39C97.1987 390.72 92.1045 387.297 89.9113 385.698C72.7799 373.205 57.9969 357.76 45.6555 340.553C44.2293 338.564 40.6059 333.66 40.2413 331.381C39.0474 331.103 38.8069 331.153 38.4643 329.965C38.1254 328.795 32.7649 319.904 31.7509 317.848C25.8515 305.882 18.0825 289.343 15.5433 276.314C14.5524 275.194 13.7891 274.245 12.8765 273.058C14.432 273.692 15.0395 273.998 16.4812 274.86C26.3664 274.149 51.2874 281.807 60.6238 286.006C62.2823 286.752 68.505 289.725 69.5138 289.434L69.8422 288.884C70.2634 289.769 70.5414 290.707 71.3812 291.12L71.9407 290.918C73.3262 292.308 80.5551 296.238 82.6855 297.51C85.7943 299.391 88.8407 301.374 91.8197 303.454C92.6622 304.037 98.5699 308.423 99.002 308.501C100.277 309.091 100.199 309.461 100.405 310.829C101.507 311.589 101.954 312.176 103.126 312.258C103.733 311.416 103.528 311.482 103.586 310.232C100.267 297.835 102.689 279.769 107.657 268.113C116.811 246.64 132.214 232.19 153.357 223.197C158.028 221.346 162.84 219.872 167.747 218.789C169.644 218.367 175.707 217.392 176.949 216.839L177.597 216.546C178.175 217.155 178.069 217.641 178.53 218.359C179.184 222.848 183.812 226.382 188.219 226.723C191.094 226.936 193.934 225.984 196.1 224.082C198.714 221.827 199.61 219.479 199.876 216.153L200.94 215.879Z"/><path fill="#125BC6" transform="matrix(1.65161 0 0 1.65171 0 -3.05176e-05)" d="M263.783 265.406C266.448 262.826 270.638 259.813 273.762 257.805C290.184 247.252 306.924 242.869 326.268 242.97C336.196 243.356 347.381 245.22 356.658 248.922L355.984 249.833C370.022 255.435 383.249 263.974 392.93 275.719C393.704 276.559 394.461 276.526 395.668 276.698L395.68 271.521C402.086 270.915 411.616 270.48 417.569 268.981C419.651 276.941 422.079 285.595 423.885 293.552C418.933 294.082 410.4 295.299 405.416 296.154L406.249 296.497C406.366 297.037 406.427 296.822 406.253 297.23C410.833 299.2 414.85 324.172 415.342 329.602C415.317 335.21 415.213 340.79 414.647 346.355C410.462 387.548 376.085 421.734 335.025 426.344C331.051 426.79 326.768 426.887 322.772 426.861C298.801 426.721 275.886 416.982 259.149 399.821C249.863 390.39 245.585 383.187 239.881 371.492C236.188 362.148 233.647 353.126 232.869 343.065C232.74 341.396 232.462 338.793 232.753 337.206C237.31 337.328 242.919 337.033 247.561 336.887C247.55 328.607 247.659 320.326 247.887 312.049C244.68 311.909 241.295 311.886 238.071 311.812L238.014 307.865C237.65 304.245 239.286 301.01 240.758 297.765C246.378 285.38 254.324 275.434 264.387 266.376L263.783 265.406Z"/><path fill="white" transform="matrix(1.65161 0 0 1.65171 0 -3.05176e-05)" d="M263.783 265.406C266.448 262.826 270.638 259.813 273.762 257.805C290.184 247.252 306.924 242.869 326.268 242.97C336.196 243.356 347.381 245.22 356.658 248.922L355.984 249.833C370.022 255.435 383.249 263.974 392.93 275.719C391.369 276.366 387.161 276.895 385.298 277.182C386.171 284.575 387.871 291.375 388.731 298.602C376.534 279.562 362.335 267.659 339.668 262.677C320.559 258.546 300.592 262.123 284.105 272.629C267.249 283.313 255.387 300.317 251.18 319.825C247 339.212 250.714 359.466 261.502 376.108C271.838 392.103 289.047 404.297 307.713 408.288C327.432 412.656 348.079 408.882 364.977 397.821C381.518 386.956 393.045 369.945 397.005 350.556C400.846 332.363 397.639 316.092 389.45 299.678C395.119 299.064 400.582 297.862 406.253 297.23C410.833 299.2 414.85 324.172 415.342 329.602C415.317 335.21 415.213 340.79 414.647 346.355C410.462 387.548 376.085 421.734 335.025 426.344C331.051 426.79 326.768 426.887 322.772 426.861C298.801 426.721 275.886 416.982 259.149 399.821C249.863 390.39 245.585 383.187 239.881 371.492C236.188 362.148 233.647 353.126 232.869 343.065C232.74 341.396 232.462 338.793 232.753 337.206C237.31 337.328 242.919 337.033 247.561 336.887C247.55 328.607 247.659 320.326 247.887 312.049C244.68 311.909 241.295 311.886 238.071 311.812L238.014 307.865C237.65 304.245 239.286 301.01 240.758 297.765C246.378 285.38 254.324 275.434 264.387 266.376L263.783 265.406Z"/><path fill="#125BC6" transform="matrix(1.65161 0 0 1.65171 0 -3.05176e-05)" d="M263.783 265.406C266.448 262.826 270.638 259.813 273.762 257.805C290.184 247.252 306.924 242.869 326.268 242.97C336.196 243.356 347.381 245.22 356.658 248.922L355.984 249.833C351.858 248.473 347.604 247.037 343.353 246.129C322.887 241.76 301.543 244.503 282.847 253.905C276.209 257.295 270.01 261.483 264.387 266.376L263.783 265.406Z"/><path fill="white" transform="matrix(1.65161 0 0 1.65171 0 -3.05176e-05)" d="M395.68 271.521C402.086 270.915 411.616 270.48 417.569 268.981C419.651 276.941 422.079 285.595 423.885 293.552C418.933 294.082 410.4 295.299 405.416 296.154C401.248 296.511 394.263 297.833 389.863 298.526L389.468 294.843C393.053 294.266 396.217 293.935 399.651 292.737L399.719 292.321L400.219 292.367L400.231 292.353C398.245 291.824 391.621 293.357 389.323 293.859L388.431 290.388C390.822 289.847 398.226 288.964 399.706 287.419L399.625 287.054C395.934 287.651 391.932 288.495 388.24 289.193L387.484 284.981C390.055 284.226 397.032 283.235 398.345 282.36L398.294 281.869C397.182 281.442 388.93 283.533 387.394 283.886C387.21 281.855 386.955 280.402 386.574 278.39C389.016 277.757 393.227 276.662 395.668 276.698L395.68 271.521Z"/><path fill="white" transform="matrix(1.65161 0 0 1.65171 0 -3.05176e-05)" d="M320.878 262.286C361.36 260.548 395.581 291.963 397.302 332.443C399.023 372.923 367.591 407.129 327.108 408.832C286.65 410.534 252.467 379.127 250.748 338.672C249.028 298.217 280.422 264.023 320.878 262.286Z"/><path fill="#005BEB" transform="matrix(1.65161 0 0 1.65171 0 -3.05176e-05)" d="M294.306 325.03C313.695 325.532 335.489 325.072 355.023 325.052C354.993 340.776 357.491 355.156 346.009 367.042C340.334 372.669 332.671 375.834 324.68 375.854C316.617 375.876 308.875 372.7 303.149 367.024C294.522 358.444 294.274 349.569 294.28 338.448L294.306 325.03Z"/><path fill="white" transform="matrix(1.65161 0 0 1.65171 0 -3.05176e-05)" d="M320.895 340.752L328.248 340.756L328.215 356.341L320.898 356.29L320.895 340.752Z"/><path fill="#005BEB" transform="matrix(1.65161 0 0 1.65171 0 -3.05176e-05)" d="M321.84 294.635C334.298 293.386 344.375 301.211 345.347 314.032C345.477 315.736 345.443 317.49 345.45 319.201L341.769 319.248C341.765 308.443 338.833 301.411 327.621 298.35C326.818 298.232 326.008 298.167 325.197 298.154C320.558 298.034 316.069 299.804 312.761 303.058C307.959 307.82 307.535 312.967 307.496 319.241L303.663 319.172C303.4 305.952 308.454 297.385 321.84 294.635Z"/><path fill="#005BEB" transform="matrix(1.65161 0 0 1.65171 0 -3.05176e-05)" d="M200.94 215.879C201.511 216.678 201.921 216.713 203.056 216.871C223.403 219.698 241.758 230.553 253.955 247.305C258.015 252.878 261.32 258.965 263.783 265.406L264.387 266.376C254.324 275.434 246.378 285.38 240.758 297.765C239.286 301.01 237.65 304.245 238.014 307.865L238.071 311.812C241.295 311.886 244.68 311.909 247.887 312.049C247.659 320.326 247.55 328.607 247.561 336.887C242.919 337.033 237.31 337.328 232.753 337.206C232.462 338.793 232.74 341.396 232.869 343.065C233.647 353.126 236.188 362.148 239.881 371.492L239.341 372.713C237.903 372.05 150.276 372.418 141.189 372.36L140.009 372.192C138.341 372.578 131.358 372.423 129.204 372.409C129.301 368.865 129.314 365.008 129.11 361.473C128.619 352.967 129.175 344.535 129.335 336.013C124.273 334.694 120.786 332.745 116.317 330.21L115.195 329.571C108.647 322.587 106.04 319.753 103.586 310.232C100.267 297.835 102.689 279.769 107.657 268.113C116.811 246.64 132.214 232.19 153.357 223.197C158.028 221.346 162.84 219.872 167.747 218.789C169.644 218.367 175.707 217.392 176.949 216.839L177.597 216.546C178.175 217.155 178.069 217.641 178.53 218.359C179.184 222.848 183.812 226.382 188.219 226.723C191.094 226.936 193.934 225.984 196.1 224.082C198.714 221.827 199.61 219.479 199.876 216.153L200.94 215.879Z"/><path fill="white" transform="matrix(1.65161 0 0 1.65171 0 -3.05176e-05)" d="M214.436 311.016C217.689 310.635 235.185 307.182 236.712 307.598C237.128 307.706 237.604 307.87 238.014 307.865L238.071 311.812C241.295 311.886 244.68 311.909 247.887 312.049C247.659 320.326 247.55 328.607 247.561 336.887C242.919 337.033 237.31 337.328 232.753 337.206C232.732 336.591 232.779 336.81 232.511 336.26C231.189 335.947 228.369 336.108 226.592 335.958C223.893 335.7 215.255 336.047 212.189 336.095C212.406 328.808 213.713 318.479 214.436 311.016Z"/><path fill="#125BC6" transform="matrix(1.65161 0 0 1.65171 0 -3.05176e-05)" d="M236.712 307.598C237.128 307.706 237.604 307.87 238.014 307.865L238.071 311.812C241.295 311.886 244.68 311.909 247.887 312.049C247.659 320.326 247.55 328.607 247.561 336.887C242.919 337.033 237.31 337.328 232.753 337.206C232.732 336.591 232.779 336.81 232.511 336.26C231.189 335.947 228.369 336.108 226.592 335.958C229.63 335.514 242.846 335.729 246.371 335.719L246.394 331.603C243.845 331.518 237.251 331.665 235.076 331.175L234.892 330.712L235.353 330.299C237.731 330.06 243.987 330.269 246.416 330.495L246.385 325.706C243.501 325.678 237.625 325.791 234.992 325.119L234.798 324.751C236.416 323.725 244.09 324.433 246.459 324.548L246.43 319.728C244.765 319.73 236.089 320.069 235.306 318.906C236.574 317.743 244.389 318.466 246.507 318.536L246.513 313.304C239.623 312.838 236.555 315.67 236.712 307.598Z"/><path fill="#E9EBF9" transform="matrix(1.65161 0 0 1.65171 0 -3.05176e-05)" d="M149.45 303.653C164.805 304.559 181.274 303.803 196.288 304.846L197.952 305.448L198.047 305.743C196.336 306.224 194.03 305.827 192.149 306.088C190.486 306.187 179.053 305.849 176.782 305.745C169.377 305.407 157.295 306.02 150.451 305.174C151.204 305.081 151.998 305.014 152.756 304.938C151.412 304.578 150.661 304.405 149.45 303.653Z"/><path fill="#E7ECF4" transform="matrix(1.65161 0 0 1.65171 0 -3.05176e-05)" d="M172.13 338.092C173.301 337.912 174.505 337.879 175.688 337.826C185.135 337.406 194.587 336.86 204.037 336.551C204.121 337.647 203.933 337.35 204.577 337.965C196.962 338.989 188.025 338.841 180.174 339.374L173.869 339.35C174.845 338.954 175.454 339.115 176.935 338.484L176.616 338.529L176.482 338.322C175.03 338.28 173.578 338.204 172.13 338.092Z"/><path fill="white" transform="matrix(1.65161 0 0 1.65171 0 -3.05176e-05)" d="M153.945 339.442C151.925 339.431 145.12 339.689 143.945 338.52L144.23 338.034C145.422 337.859 146.618 337.952 147.818 337.996C155.919 338.292 164.026 337.954 172.13 338.092C173.578 338.204 175.03 338.28 176.482 338.322L176.616 338.529L176.935 338.484C175.454 339.115 174.845 338.954 173.869 339.35C170.846 339.771 157.781 339.445 153.945 339.442Z"/><path fill="white" transform="matrix(1.65161 0 0 1.65171 0 -3.05176e-05)" d="M150.451 305.174C142.949 305.583 141.366 296.731 141.146 291.068C141.079 289.342 140.826 286.182 141.83 284.71L142.452 284.682C143.999 286.971 140.273 301.847 149.091 303.584L149.45 303.653C150.661 304.405 151.412 304.578 152.756 304.938C151.998 305.014 151.204 305.081 150.451 305.174Z"/><path fill="#E7ECF4" transform="matrix(1.65161 0 0 1.65171 0 -3.05176e-05)" d="M196.288 304.846C200.287 304.9 213.795 304.464 216.592 305.994L216.65 306.367C214.307 307.187 195.443 306.614 192.149 306.088C194.03 305.827 196.336 306.224 198.047 305.743L197.952 305.448L196.288 304.846Z"/><path fill="#E9EBF9" transform="matrix(1.65161 0 0 1.65171 0 -3.05176e-05)" d="M204.037 336.551C205.532 336.441 207.084 336.168 208.442 336.717L208.696 337.137C207.597 338.031 206.03 337.909 204.577 337.965C203.933 337.35 204.121 337.647 204.037 336.551Z"/><path fill="#125BC6" transform="matrix(1.65161 0 0 1.65171 0 -3.05176e-05)" d="M12.8765 273.058C14.432 273.692 15.0395 273.998 16.4812 274.86C26.3664 274.149 51.2874 281.807 60.6238 286.006C62.2823 286.752 68.505 289.725 69.5138 289.434L69.8422 288.884C70.2634 289.769 70.5414 290.707 71.3812 291.12L71.9407 290.918C73.3262 292.308 80.5551 296.238 82.6855 297.51C85.7943 299.391 88.8407 301.374 91.8197 303.454C92.6622 304.037 98.5699 308.423 99.002 308.501C100.277 309.091 100.199 309.461 100.405 310.829C101.507 311.589 101.954 312.176 103.126 312.258C103.733 311.416 103.528 311.482 103.586 310.232C106.04 319.753 108.647 322.587 115.195 329.571L116.317 330.21C120.786 332.745 124.273 334.694 129.335 336.013C129.175 344.535 128.619 352.967 129.11 361.473C129.314 365.008 129.301 368.865 129.204 372.409C131.358 372.423 138.341 372.578 140.009 372.192L141.189 372.36C150.276 372.418 237.903 372.05 239.341 372.713L239.881 371.492C245.585 383.187 249.863 390.39 259.149 399.821C275.886 416.982 298.801 426.721 322.772 426.861C326.768 426.887 331.051 426.79 335.025 426.344C376.085 421.734 410.462 387.548 414.647 346.355C415.213 340.79 415.317 335.21 415.342 329.602C415.636 330.252 415.814 330.843 416.354 331.283C418.472 353.673 408.962 378.188 394.765 395.325C392.778 397.699 390.705 400 388.551 402.222C391.031 410.647 396.258 417.56 404.029 421.802C407.349 423.588 410.953 424.784 414.682 425.339C419.536 426.096 423.368 425.7 428.111 425.83C436.606 426.062 446.275 425.408 454.666 425.813C442.273 420.394 435.534 414.897 431.841 401.263L432.951 400.818C435.795 412.617 445.69 423.34 458.142 425.195C465.985 426.363 475.704 425.833 483.75 425.828L529.65 425.792C535.606 425.79 546.302 425.446 552.043 425.828L551.955 415.357C552.555 416.147 552.168 415.875 553.213 416.113C553.389 419.697 553.374 423.287 553.167 426.869C546.481 427.475 533.966 427.117 527.025 427.113L479.1 427.108L439.641 427.118C425.757 427.137 409.277 428.976 398.118 419.21C392.685 414.456 389.639 409.753 387.479 402.865C371.7 418.666 346.327 428.419 324.136 428.188C307.778 428.017 296.602 424.828 282.036 418.188C272.901 429.119 259.879 427.102 247.025 427.098L215.579 427.097L172.732 427.124C164.97 427.127 155.266 427.359 147.649 426.946C146.436 427.159 141.9 430.688 140.691 431.588C140.702 429.978 140.791 428.528 140.412 426.962C137.719 427.063 134.304 426.94 131.678 427.116C115.011 428.229 98.2768 425.418 96.0058 405.555C95.4619 400.798 96.8889 396.786 98.9668 392.39C97.1987 390.72 92.1045 387.297 89.9113 385.698C72.7799 373.205 57.9969 357.76 45.6555 340.553C44.2293 338.564 40.6059 333.66 40.2413 331.381C39.0474 331.103 38.8069 331.153 38.4643 329.965C38.1254 328.795 32.7649 319.904 31.7509 317.848C25.8515 305.882 18.0825 289.343 15.5433 276.314C14.5524 275.194 13.7891 274.245 12.8765 273.058Z"/><path fill="white" transform="matrix(1.65161 0 0 1.65171 0 -3.05176e-05)" d="M160.31 392.677L226.297 386.035C232.808 385.338 238.589 384.902 245.221 384.063C252.331 395.59 260.376 404.164 271.556 411.81C274.63 413.912 278.182 415.733 280.975 417.645C270.704 427.568 263.987 425.885 250.518 425.851L230.547 425.806L160.226 425.739C160.274 422.518 160.437 418.468 160.214 415.322C160.374 410.651 160.28 405.7 160.264 401.007C160.297 398.276 160.38 395.395 160.31 392.677Z"/><path fill="white" transform="matrix(1.65161 0 0 1.65171 0 -3.05176e-05)" d="M140.827 425.821C135.049 425.288 126.281 425.965 120.181 425.818C88.086 425.043 90.5123 379.487 122.483 382.604C139.498 384.263 156.879 386.164 173.935 387.795C177.148 388.103 180.559 388.368 183.786 388.513L183.671 389.162C181.69 389.615 176.131 390.019 173.759 390.213C168.697 390.626 164.044 391.198 159.017 391.802C158.967 394.815 158.854 397.884 159.076 400.884L160.264 401.007C160.28 405.7 160.374 410.651 160.214 415.322C160.158 416.352 160.242 417.65 159.648 418.414L159.011 418.698C157.365 419.71 149.813 424.554 149.339 425.83L147.649 426.946C146.436 427.159 141.9 430.688 140.691 431.588C140.702 429.978 140.791 428.528 140.412 426.962L140.827 425.821Z"/><path fill="#005BEB" transform="matrix(1.65161 0 0 1.65171 0 -3.05176e-05)" d="M159.076 400.884L160.264 401.007C160.28 405.7 160.374 410.651 160.214 415.322C160.158 416.352 160.242 417.65 159.648 418.414L159.011 418.698C157.365 419.71 149.813 424.554 149.339 425.83L147.649 426.946C146.436 427.159 141.9 430.688 140.691 431.588C140.702 429.978 140.791 428.528 140.412 426.962L140.827 425.821C140.46 423.728 140.629 418.945 140.639 416.542L140.649 401.055C143.824 401.098 156.563 401.433 159.076 400.884Z"/><path fill="#CDE6FB" transform="matrix(1.65161 0 0 1.65171 0 -3.05176e-05)" d="M16.4812 274.86C26.3664 274.149 51.2874 281.807 60.6238 286.006C62.2823 286.752 68.505 289.725 69.5138 289.434L69.8422 288.884C70.2634 289.769 70.5414 290.707 71.3812 291.12L71.9407 290.918C73.3262 292.308 80.5551 296.238 82.6855 297.51C85.7943 299.391 88.8407 301.374 91.8197 303.454C92.6622 304.037 98.5699 308.423 99.002 308.501C98.5391 309.72 99.7572 315.155 100.043 316.955C100.994 323.219 101.997 329.474 103.053 335.721C104.194 342.684 105.232 351.675 106.807 358.401L48.1294 304.234C37.4667 294.565 26.9166 284.774 16.4812 274.86Z"/><path fill="#CDE6FB" transform="matrix(1.65161 0 0 1.65171 0 -3.05176e-05)" d="M40.2413 331.381C44.91 332.028 84.9724 341.21 87.2919 342.552C90.9325 344.657 94.9097 349.111 98.0415 351.993L121.555 373.666C124.505 376.332 127.879 379.715 130.92 382.089C120.189 381.639 112.891 378.706 103.429 386.977C101.454 388.704 100.446 390.25 98.9668 392.39C97.1987 390.72 92.1045 387.297 89.9113 385.698C72.7799 373.205 57.9969 357.76 45.6555 340.553C44.2293 338.564 40.6059 333.66 40.2413 331.381Z"/><path fill="white" transform="matrix(1.65161 0 0 1.65171 0 -3.05176e-05)" d="M141.189 372.36C150.276 372.418 237.903 372.05 239.341 372.713C240.718 376.189 242.684 379.695 244.489 382.984C231.366 384.872 217.421 385.492 204.205 387.093C197.501 387.906 192.152 388.505 185.329 387.903C183.718 387.612 181.903 387.435 180.267 387.288C167.193 386.111 154.182 384.549 141.099 383.455C141.206 379.758 141.236 376.059 141.189 372.36Z"/><path fill="#CDE6FB" transform="matrix(1.65161 0 0 1.65171 0 -3.05176e-05)" d="M15.5433 276.314C23.5493 282.799 31.8904 291.361 39.6516 298.294C55.1501 312.14 70.2646 326.959 85.8682 340.654C80.7763 339.391 39.7394 329.56 38.4643 329.965C38.1254 328.795 32.7649 319.904 31.7509 317.848C25.8515 305.882 18.0825 289.343 15.5433 276.314Z"/><path fill="#CDE6FB" transform="matrix(1.65161 0 0 1.65171 0 -3.05176e-05)" d="M100.405 310.829C101.507 311.589 101.954 312.176 103.126 312.258C103.733 311.416 103.528 311.482 103.586 310.232C106.04 319.753 108.647 322.587 115.195 329.571C116.865 343.273 119.39 357.849 121.354 371.643C116.822 367.564 112.241 363.483 107.946 359.159C106.595 347.849 103.819 335.346 102.326 323.971C101.768 319.718 100.72 315.079 100.405 310.829Z"/><path fill="#CDE6FB" transform="matrix(1.65161 0 0 1.65171 0 -3.05176e-05)" d="M116.317 330.21C120.786 332.745 124.273 334.694 129.335 336.013C129.175 344.535 128.619 352.967 129.11 361.473C129.314 365.008 129.301 368.865 129.204 372.409C131.358 372.423 138.341 372.578 140.009 372.192C139.72 374.676 139.839 380.423 139.822 383.153C137.494 382.947 135.17 382.703 132.85 382.421L122.64 372.913C122.538 369.713 120.991 360.181 120.361 356.532C118.933 348.256 117.987 338.274 116.317 330.21Z"/><path fill="white" transform="matrix(1.65161 0 0 1.65171 0 -3.05176e-05)" d="M159.011 418.698L158.961 425.732C156.257 425.736 151.905 425.617 149.339 425.83C149.813 424.554 157.365 419.71 159.011 418.698Z"/><path fill="white" transform="matrix(1.65161 0 0 1.65171 0 -3.05176e-05)" d="M514.922 275.459C530.413 271.299 534.188 268.376 534.913 251.884C535.452 239.634 539.024 226.783 552.276 223.7C561.138 221.186 569.334 222.4 577.878 220.836C583.638 231.749 592.977 245.016 589.329 257.181C585.218 270.889 567.032 274.921 563.088 285.654C558.3 298.686 572.413 306.707 563.154 321.196C556.726 331.256 537.951 337.91 535.868 344.773C532.078 357.261 542.582 365.17 534.666 382.552C540.515 382.543 547.5 382.369 553.253 382.638C553.298 385.459 553.706 396.469 552.893 398.496L552.476 398.287C552.121 399.041 552.109 399.247 551.963 400.04C551.93 394.634 551.959 389.228 552.048 383.823C536.188 384.001 520.076 383.878 504.195 383.882L491.105 383.888C489.338 383.892 485.608 384.016 484.08 383.765L483.651 383.081L484.959 382.439C485.522 374.67 485.16 363.063 485.207 355.052C485.244 348.669 485.541 337.244 485.063 331.183L496.406 331.183C496.416 324.267 496.144 322.966 498.206 316.327C499.682 304.437 496.88 295.535 503.434 283.405C504.797 281.803 512.013 277.64 514.108 276.606L514.922 275.459Z"/><path fill="#125BC6" transform="matrix(1.65161 0 0 1.65171 0 -3.05176e-05)" d="M514.922 275.459C530.413 271.299 534.188 268.376 534.913 251.884C535.452 239.634 539.024 226.783 552.276 223.7C561.138 221.186 569.334 222.4 577.878 220.836C583.638 231.749 592.977 245.016 589.329 257.181C585.218 270.889 567.032 274.921 563.088 285.654C558.3 298.686 572.413 306.707 563.154 321.196C556.726 331.256 537.951 337.91 535.868 344.773C532.078 357.261 542.582 365.17 534.666 382.552C540.515 382.543 547.5 382.369 553.253 382.638C553.298 385.459 553.706 396.469 552.893 398.496L552.476 398.287C552.121 399.041 552.109 399.247 551.963 400.04C551.93 394.634 551.959 389.228 552.048 383.823C536.188 384.001 520.076 383.878 504.195 383.882L491.105 383.888C489.338 383.892 485.608 384.016 484.08 383.765L483.651 383.081L484.959 382.439C485.929 382.607 485.972 382.587 486.95 382.373C487.728 381.835 521.293 322.129 523.923 316.441C523.267 313.096 519.416 289.828 520.267 288.26L520.024 287.984L519.924 288.231L520.288 288.215C521.614 290.922 524.379 310.865 524.607 315.072C527.762 310.343 531.412 303.369 534.257 298.264L549.959 270.111C552.534 265.491 558.66 253.26 562.125 250.319C559.312 256.593 555.265 262.675 552.08 268.783C547.317 277.917 541.429 286.948 536.913 296.16C539.64 295.008 553.617 289.015 555.4 289.652C554.031 290.997 539.227 296.413 536.181 297.657C534.082 300.651 531.964 304.702 530.163 307.938L521.406 323.688L494.418 371.882C501.711 370.561 508.965 369.65 516.285 368.543C517.4 368.375 518.424 368.096 519.384 368.747C518.012 369.992 497.218 372.443 493.765 373.011C492.043 376.258 490.196 379.265 488.544 382.595C502.873 382.2 518.83 382.531 533.308 382.53C534.975 378.349 536.034 375.897 536.361 371.246C536.543 368.34 536.377 365.422 535.866 362.556C534.981 357.505 532.061 349.103 534.564 344.445C540.143 334.065 554.571 331.76 561.972 320.774C570.861 307.58 557.076 297.704 561.975 285.04C566.332 273.777 583.734 270.368 587.912 257.412C591.924 244.969 582.726 233.23 577.366 222.264C572.137 222.844 566.924 223.196 561.668 223.413C560.274 223.47 558.611 223.609 557.263 223.805C552.673 224.47 546.053 226.667 542.977 230.53C527.872 249.5 547.686 271.521 514.108 276.606L514.922 275.459Z"/><path fill="#2473D1" transform="matrix(1.65161 0 0 1.65171 0 -3.05176e-05)" d="M431.841 401.263C430.032 391.898 430.852 380.091 430.738 370.447C430.697 366.983 430.371 350.76 430.995 348.923L431.564 348.742C431.728 348.885 431.892 349.029 432.056 349.172C432.804 359.841 431.54 392.454 432.951 400.818L431.841 401.263Z"/><path fill="#2473D1" transform="matrix(1.65161 0 0 1.65171 0 -3.05176e-05)" d="M483.72 331.176L485.063 331.183C485.541 337.244 485.244 348.669 485.207 355.052C485.16 363.063 485.522 374.67 484.959 382.439L483.651 383.081C483.931 377.124 483.768 370.051 483.762 364.022L483.72 331.176Z"/><path fill="#CDE6FB" transform="matrix(1.65161 0 0 1.65171 0 -3.05176e-05)" d="M162.977 46.8203C175.739 40.5172 189.455 35.0043 202.329 28.81C206.737 26.6894 213.204 24.269 217.245 21.8431C219.394 26.842 223.106 34.1993 224.846 38.96C237.131 40.2372 249.428 41.396 261.735 42.4363C268.917 43.0988 277.214 44.1878 284.376 44.3262C287.104 40.7333 292.633 33.2095 294.809 29.2865C304.877 36.5473 314.984 43.7534 325.13 50.9045C330.613 54.7766 338.694 60.2207 343.886 64.3014C340.853 67.5489 335.585 75.2827 332.908 79.232L357.772 133.704C363.692 133.899 370.167 134.763 375.906 134.779C375.218 148.626 373.061 163.377 372.016 177.275C371.61 182.683 370.623 189.179 370.518 194.516C364.346 194.05 358.178 193.525 352.016 192.94C344.427 202.986 337.003 214.073 329.553 224.302C326.989 227.823 318.463 239.522 317.031 242.774C318.559 242.73 325.284 242.342 326.268 242.97C306.924 242.869 290.184 247.252 273.762 257.805C270.638 259.813 266.448 262.826 263.783 265.406C261.32 258.965 258.015 252.878 253.955 247.305C241.758 230.553 223.403 219.698 203.056 216.871C201.921 216.713 201.511 216.678 200.94 215.879L199.876 216.153C199.61 219.479 198.714 221.827 196.1 224.082C193.934 225.984 191.094 226.936 188.219 226.723C183.812 226.382 179.184 222.848 178.53 218.359C178.069 217.641 178.175 217.155 177.597 216.546L176.949 216.839C175.707 217.392 169.644 218.367 167.747 218.789C162.84 219.872 158.028 221.346 153.357 223.197C153.418 220.389 133.021 178.311 130.563 171.779C124.76 171.135 117.787 170.309 111.997 170.073L115.456 132.876C116.052 126.825 117.428 116.072 117.478 110.369C123.784 111.457 130.098 111.405 136.055 112.29L157.912 81.6183C161.756 76.2222 167.218 68.998 170.593 63.5133C168.099 58.2613 165.476 51.7348 162.977 46.8203Z"/><path fill="white" transform="matrix(1.65161 0 0 1.65171 0 -3.05176e-05)" d="M196.436 152.529C196.029 140.573 200.77 128.969 208.883 120.249C217.473 110.916 229.419 105.378 242.093 104.855C254.85 104.322 267.284 108.945 276.594 117.683C285.825 126.202 291.232 138.084 291.589 150.641C291.962 163.845 287.965 175.664 278.754 185.359C270.092 194.622 258.044 199.98 245.363 200.207C233.681 200.459 221.57 196.869 212.994 188.705C212.472 188.209 211.979 187.685 211.515 187.135C211.603 186.067 211.775 185.253 211.432 184.254C210.518 179.754 209.089 177.749 208.39 174.719L211.406 148.68C206.462 150.01 201.437 151.178 196.436 152.529Z"/><path fill="white" transform="matrix(1.65161 0 0 1.65171 0 -3.05176e-05)" d="M178.164 179.866C183.478 166.956 198.091 164.544 207.05 175.553C212.167 184.518 210.398 193.738 201.248 199.208C193.353 203.928 180.591 199.417 178.461 190.279C175.899 190.66 173.772 191.009 171.501 189.204C170.438 188.37 169.789 187.116 169.724 185.767C169.587 183.088 171.133 181.224 173.101 179.656C175.257 179.15 176.114 179.355 178.164 179.866Z"/><path fill="#125BC6" transform="matrix(1.65161 0 0 1.65171 0 -3.05176e-05)" d="M174.567 184.121C174.774 184.101 174.981 184.082 175.188 184.066C178.13 183.84 179.34 184.644 179.537 187.663C179.231 187.515 178.849 187.34 178.673 187.032C177.672 185.274 176.141 185.536 174.769 184.918L174.567 184.121Z"/><path fill="#005BEB" transform="matrix(1.65161 0 0 1.65171 0 -3.05176e-05)" d="M196.436 152.529C201.437 151.178 206.462 150.01 211.406 148.68L208.39 174.719L207.05 175.553C198.091 164.544 183.478 166.956 178.164 179.866C176.114 179.355 175.257 179.15 173.101 179.656L173.389 178.317C168.93 163.435 171.333 160.721 185.849 155.876C189.337 154.712 192.903 153.571 196.436 152.529Z"/><path fill="white" transform="matrix(1.65161 0 0 1.65171 0 -3.05176e-05)" d="M178.418 193.235C183.268 201.8 190.894 203.499 199.874 201.288C199.745 205.961 199.773 211.485 199.876 216.153C199.61 219.479 198.714 221.827 196.1 224.082C193.934 225.984 191.094 226.936 188.219 226.723C183.812 226.382 179.184 222.848 178.53 218.359C178.209 215.871 178.299 211.585 178.3 208.99C178.296 203.738 178.335 198.486 178.418 193.235Z"/><path fill="#125BC6" transform="matrix(1.65161 0 0 1.65171 0 -3.05176e-05)" d="M208.39 174.719C209.089 177.749 210.518 179.754 211.432 184.254C210.831 191.548 207.999 197.343 201.211 200.655C201.242 204.31 201.481 212.605 200.94 215.879L199.876 216.153C199.773 211.485 199.745 205.961 199.874 201.288C190.894 203.499 183.268 201.8 178.418 193.235C178.335 198.486 178.296 203.738 178.3 208.99C178.299 211.585 178.209 215.871 178.53 218.359C178.069 217.641 178.175 217.155 177.597 216.546L176.949 216.839C176.264 211.777 176.649 197.432 177.082 192.167C171.856 191.761 167.08 189.311 168.794 182.679C169.331 180.604 171.502 179.222 173.389 178.317L173.101 179.656C171.133 181.224 169.587 183.088 169.724 185.767C169.789 187.116 170.438 188.37 171.501 189.204C173.772 191.009 175.899 190.66 178.461 190.279C180.591 199.417 193.353 203.928 201.248 199.208C210.398 193.738 212.167 184.518 207.05 175.553L208.39 174.719Z"/><path fill="#005BEB" transform="matrix(1.65161 0 0 1.65171 0 -3.05176e-05)" d="M406.393 129.021C407.372 125.925 408.269 124.499 410.392 122.001C416.192 115.177 434.031 113.004 442.822 112.78C448.965 113.541 453.835 115.813 457.734 120.779C459.719 123.298 461.099 126.238 461.767 129.375C462.624 133.289 462.399 139.48 462.394 143.7L462.363 161.857C456.228 162.853 449.501 163.283 443.482 164.505C443.961 166.149 443.782 169.566 443.744 171.431C469.843 174.674 490.151 182.803 507.123 204.276C520.561 221.277 530.964 252.1 517.289 271.905C516.817 272.588 515.115 274.834 514.922 275.459L514.108 276.606C512.013 277.64 504.797 281.803 503.434 283.405C496.88 295.535 499.682 304.437 498.206 316.327C496.144 322.966 496.416 324.267 496.406 331.183L485.063 331.183L483.72 331.176C465.89 330.966 447.999 331.289 430.163 331.152C425.596 331.117 420.909 331.091 416.354 331.283C415.814 330.843 415.636 330.252 415.342 329.602C414.85 324.172 410.833 299.2 406.253 297.23C406.427 296.822 406.366 297.037 406.249 296.497L405.416 296.154C410.4 295.299 418.933 294.082 423.885 293.552C422.079 285.595 419.651 276.941 417.569 268.981C411.616 270.48 402.086 270.915 395.68 271.521L395.668 276.698C394.461 276.526 393.704 276.559 392.93 275.719C383.249 263.974 370.022 255.435 355.984 249.833L356.658 248.922C357.059 235.24 359.624 223.267 366.158 211.13C374.805 194.976 389.001 182.493 406.129 175.983C411.273 174.047 414.86 173.545 419.874 172.041C419.808 170.355 419.703 169.271 420.021 167.607L413.756 168.462C413.803 163.238 413.777 158.015 413.68 152.792C409.611 145.653 409.074 143.545 410.258 135.398C409.223 135.455 407.52 135.731 406.437 135.876C406.158 133.343 406.113 131.544 406.393 129.021Z"/><path fill="#005BEB" transform="matrix(1.65161 0 0 1.65171 0 -3.05176e-05)" d="M406.393 129.021C407.372 125.925 408.269 124.499 410.392 122.001C416.192 115.177 434.031 113.004 442.822 112.78C448.965 113.541 453.835 115.813 457.734 120.779C459.719 123.298 461.099 126.238 461.767 129.375C462.624 133.289 462.399 139.48 462.394 143.7L462.363 161.857C456.228 162.853 449.501 163.283 443.482 164.505C441.938 163.431 443.702 154.997 442.631 153.253C442.629 152.039 442.635 151.454 442.445 150.237L441.933 149.958L441.492 148.805C436.825 156.019 430.318 158.611 421.941 156.579C419.236 155.81 416.758 153.762 414.797 151.817L413.68 152.792C409.611 145.653 409.074 143.545 410.258 135.398C409.223 135.455 407.52 135.731 406.437 135.876C406.158 133.343 406.113 131.544 406.393 129.021Z"/><path fill="white" transform="matrix(1.65161 0 0 1.65171 0 -3.05176e-05)" d="M411.674 135.402C414.047 134.614 422.809 133.895 425.917 133.495C432.057 132.777 438.193 132 444.34 131.34C445.111 131.322 446.521 131.204 447.205 131.531C450.356 133.037 451.769 136.591 449.683 139.6C447.931 142.128 446.151 142.619 443.297 142.278C442.834 144.693 442.472 146.534 441.492 148.805C436.825 156.019 430.318 158.611 421.941 156.579C419.236 155.81 416.758 153.762 414.797 151.817L413.68 152.792C409.611 145.653 409.074 143.545 410.258 135.398L411.674 135.402Z"/><path fill="#125BC6" transform="matrix(1.65161 0 0 1.65171 0 -3.05176e-05)" d="M410.258 135.398L411.674 135.402C410.677 141.069 410.282 145.472 413.777 150.49C414.099 150.946 414.439 151.389 414.797 151.817L413.68 152.792C409.611 145.653 409.074 143.545 410.258 135.398Z"/><path fill="#125BC6" transform="matrix(1.65161 0 0 1.65171 0 -3.05176e-05)" d="M443.966 135.548C444.597 135.643 444.567 135.663 445.123 135.993C444.878 137.295 443.15 136.969 441.897 139.549L441.779 139.714L441.335 139.707C440.815 137.738 442.49 136.416 443.966 135.548Z"/><path fill="white" transform="matrix(1.65161 0 0 1.65171 0 -3.05176e-05)" d="M441.492 148.805L441.933 149.958L442.445 150.237C442.635 151.454 442.629 152.039 442.631 153.253C443.702 154.997 441.938 163.431 443.482 164.505C443.961 166.149 443.782 169.566 443.744 171.431C442.893 171.618 443.148 171.395 442.669 171.901C442.425 174.082 441.651 176.127 440.294 177.863C438.481 180.185 435.816 181.688 432.892 182.038C430.031 182.332 427.172 181.469 424.952 179.642C422.501 177.653 421.527 175.352 421.22 172.31L419.874 172.041C419.808 170.355 419.703 169.271 420.021 167.607L413.756 168.462C413.803 163.238 413.777 158.015 413.68 152.792L414.797 151.817C416.758 153.762 419.236 155.81 421.941 156.579C430.318 158.611 436.825 156.019 441.492 148.805Z"/><path fill="#005BEB" transform="matrix(1.65161 0 0 1.65171 0 -3.05176e-05)" d="M414.797 151.817C416.758 153.762 419.236 155.81 421.941 156.579L421.119 156.854C421.031 157.213 420.973 157.276 420.997 157.629C420.718 159.237 420.986 160.448 420.86 161.87C420.749 163.207 420.851 166.934 420.462 167.56L420.021 167.607L413.756 168.462C413.803 163.238 413.777 158.015 413.68 152.792L414.797 151.817Z"/><path fill="#125BC6" transform="matrix(1.65161 0 0 1.65171 0 -3.05176e-05)" d="M441.492 148.805L441.933 149.958C439.851 153.747 436.332 156.539 432.168 157.704C428.598 158.738 424.57 158.561 420.997 157.629C420.973 157.276 421.031 157.213 421.119 156.854L421.941 156.579C430.318 158.611 436.825 156.019 441.492 148.805Z"/><path fill="#125BC6" transform="matrix(1.65161 0 0 1.65171 0 -3.05176e-05)" d="M442.631 153.253C443.702 154.997 441.938 163.431 443.482 164.505C443.961 166.149 443.782 169.566 443.744 171.431C442.893 171.618 443.148 171.395 442.669 171.901C442.291 168.605 442.52 156.912 442.631 153.253Z"/><path fill="#2473D1" transform="matrix(1.65161 0 0 1.65171 0 -3.05176e-05)" d="M420.86 161.87C421.04 165.348 421.16 168.828 421.22 172.31L419.874 172.041C419.808 170.355 419.703 169.271 420.021 167.607L420.462 167.56C420.851 166.934 420.749 163.207 420.86 161.87Z"/><path fill="#125BC6" transform="matrix(1.65161 0 0 1.65171 0 -3.05176e-05)" d="M502.089 283.373C502.779 283.228 502.804 283.144 503.434 283.405C496.88 295.535 499.682 304.437 498.206 316.327L496.951 316.404L496.822 316.755C495.874 315.59 496.179 302.39 496.394 300.07L497.138 300.092C497.415 299.424 497.526 299.006 497.713 298.322C498.639 292.694 499.246 288.445 502.089 283.373Z"/><path fill="#CDE6FB" transform="matrix(1.65161 0 0 1.65171 0 -3.05176e-05)" d="M496.394 300.07L497.138 300.092C497.415 299.424 497.526 299.006 497.713 298.322C497.589 302.028 497.694 313.567 496.951 316.404L496.822 316.755C495.874 315.59 496.179 302.39 496.394 300.07Z"/><path fill="white" transform="matrix(1.65161 0 0 1.65171 0 -3.05176e-05)" d="M496.439 284.746C497.928 284.309 500.653 283.397 502.089 283.373C499.246 288.445 498.639 292.694 497.713 298.322C497.526 299.006 497.415 299.424 497.138 300.092L496.394 300.07L496.439 284.746Z"/><path fill="#E7ECF4" transform="matrix(1.65161 0 0 1.65171 0 -3.05176e-05)" d="M486.185 286.804C487.903 286.487 491.126 285.671 492.537 286.79L492.52 286.974L492.41 286.917C491.54 287.77 491.871 287.506 490.292 287.575C484.568 288.942 477.777 289.885 471.925 290.76C463.358 292.097 454.758 293.212 446.133 294.103C445.115 293.472 445.882 293.248 443.983 292.747C458.107 291.193 472.181 289.211 486.185 286.804Z"/><path fill="#E9EBF9" transform="matrix(1.65161 0 0 1.65171 0 -3.05176e-05)" d="M486.185 286.804C487.903 286.487 491.126 285.671 492.537 286.79L492.52 286.974L492.41 286.917C491.54 287.77 491.871 287.506 490.292 287.575C487.935 287.297 487.804 288.22 486.185 286.804Z"/><path fill="white" transform="matrix(1.65161 0 0 1.65171 0 -3.05176e-05)" d="M472.327 255.306C476.587 254.576 481.843 254.685 484.577 251.413C488.094 247.204 484.244 235.906 485.394 233.942C486.79 234.62 487.239 237.955 487.376 239.357C488.103 246.804 488.175 254.84 478.985 255.781C477.236 255.611 473.274 255.838 472.327 255.306Z"/><path fill="#E9EBF9" transform="matrix(1.65161 0 0 1.65171 0 -3.05176e-05)" d="M446.133 294.103C443.921 294.703 428.983 296.294 425.886 295.622C425.557 295.551 425.579 295.286 425.495 294.921C426.062 294.419 442.051 292.956 443.983 292.747C445.882 293.248 445.115 293.472 446.133 294.103Z"/><path fill="#CDE6FB" transform="matrix(1.65161 0 0 1.65171 0 -3.05176e-05)" d="M434.433 260.815C435.56 261.964 436.138 261.801 437.921 261.868C435.166 262.366 418.821 264.923 416.738 264.76L416.181 264.321C416.542 263.168 417.328 263.308 418.445 263.045C422.485 262.933 430.389 261.531 434.433 260.815Z"/><path fill="#E9EBF9" transform="matrix(1.65161 0 0 1.65171 0 -3.05176e-05)" d="M434.433 260.815C439.321 260.086 445.261 259.073 450.109 258.601C451.959 260.063 451.52 258.945 453.319 259.637C449.959 260.254 441.14 261.79 437.921 261.868C436.138 261.801 435.56 261.964 434.433 260.815Z"/><path fill="#E9EBF9" transform="matrix(1.65161 0 0 1.65171 0 -3.05176e-05)" d="M462.016 256.797L472.327 255.306C473.274 255.838 477.236 255.611 478.985 255.781C474.351 256.801 467.974 257.634 463.214 258.289C462.991 257.446 462.688 257.199 462.016 256.797Z"/><defs><linearGradient id="gradient_0" gradientUnits="userSpaceOnUse" x1="456.67047" y1="257.32922" x2="456.67914" y2="259.10547"><stop offset="0" stop-color="#EAEEF2"/><stop offset="1" stop-color="#E4E6FC"/></linearGradient></defs><path fill="url(#gradient_0)" transform="matrix(1.65161 0 0 1.65171 0 -3.05176e-05)" d="M450.109 258.601C453.98 257.936 458.113 257.385 462.016 256.797C462.688 257.199 462.991 257.446 463.214 258.289C461.176 258.619 455.017 259.706 453.319 259.637C451.52 258.945 451.959 260.063 450.109 258.601Z"/><path fill="#2473D1" transform="matrix(1.65161 0 0 1.65171 0 -3.05176e-05)" d="M416.181 264.321L415.831 264.195C414.847 265.342 414.695 265.782 413.216 265.331C412.769 264.467 412.747 264.511 412.747 263.558C414.038 262.34 416.192 263.018 418.445 263.045C417.328 263.308 416.542 263.168 416.181 264.321Z"/><path fill="#2473D1" transform="matrix(1.65161 0 0 1.65171 0 -3.05176e-05)" d="M418.813 265.816C419.297 265.749 419.445 265.804 419.941 265.851L419.872 266.328C418.894 267.303 418.269 267.564 417.073 268.194C416.009 268.105 416.144 268.287 415.485 267.723L415.698 267.209C416.998 266.242 417.272 266.2 418.813 265.816Z"/><path fill="#CDE6FB" transform="matrix(1.65161 0 0 1.65171 0 -3.05176e-05)" d="M396.959 29.2037C403.522 29.6608 412.828 31.0174 419.509 31.8624L418.619 38.646C421.122 40.9457 433.739 50.4259 436.708 52.137C439.046 51.4047 440.922 50.5716 443.158 49.6072C444.928 54.9087 449.564 64.9763 451.89 70.4698C449.484 71.5858 448.161 72.1474 445.6 72.9913C444.56 78.4446 443.206 90.1018 442.853 95.6072C444.721 97.1391 446.25 98.0685 448.22 99.8284C446.667 102.517 440.714 109.936 438.629 112.448C439.699 112.453 442.01 112.335 442.822 112.78C434.031 113.004 416.192 115.177 410.392 122.001C408.269 124.499 407.372 125.925 406.393 129.021C399.308 128.37 392.234 127.608 385.173 126.735L385.785 119.781C382.525 116.681 372 109.124 368.008 106.223C366.01 106.894 363.471 108.063 361.489 108.908C359.401 103.867 354.933 92.4696 352.51 87.9508C354.744 87.108 356.959 86.2171 359.154 85.2787C360.197 78.9758 361.153 69.2486 361.762 62.8919C359.787 61.1683 358.41 60.2833 356.19 58.9395C360.69 52.8066 365.255 46.7222 369.886 40.6874C371.834 42.086 373.381 43.1947 375.203 44.7789C379.786 43.4864 392.067 37.8891 396.416 35.9353L396.959 29.2037Z"/><path fill="white" transform="matrix(1.65161 0 0 1.65171 0 -3.05176e-05)" d="M399.339 61.5487C409.143 59.9015 418.422 66.5266 420.046 76.3338C421.671 86.1411 415.024 95.404 405.212 97.0058C395.433 98.6023 386.206 91.9822 384.587 82.207C382.968 72.4318 389.567 63.1905 399.339 61.5487Z"/><path fill="#005BEB" transform="matrix(1.65161 0 0 1.65171 0 -3.05176e-05)" d="M534.139 89.6715C539.765 89.1594 544.833 90.9896 546.782 96.7176C547.775 99.6207 547.567 102.8 546.202 105.548C543.174 111.612 536.567 112.946 530.751 110.077C529.323 111.525 527.917 112.994 526.534 114.485L529.04 116.694C527.808 118.097 526.239 119.589 524.901 120.924C524.029 119.972 523.014 118.371 521.587 119.087C521.49 119.816 521.802 120.152 522.184 120.798C522.934 121.584 524.438 122.822 525.314 123.582C523.984 125.059 522.538 126.482 521.137 127.895C519.393 126.155 514.378 121.347 513.184 119.577C517.666 115.278 522.194 110.651 526.614 106.26C523.982 98.8134 525.877 91.7651 534.139 89.6715Z"/><path fill="white" transform="matrix(1.65161 0 0 1.65171 0 -3.05176e-05)" d="M535.151 94.6173C536.921 94.243 538.765 94.6899 540.168 95.8329C541.57 96.9759 542.38 98.6922 542.371 100.501C542.356 103.366 540.313 105.818 537.498 106.349C534.276 106.957 531.165 104.859 530.522 101.644C529.878 98.4291 531.943 95.2955 535.151 94.6173Z"/><path fill="#005BEB" transform="matrix(1.65161 0 0 1.65171 0 -3.05176e-05)" d="M551.963 400.04C552.109 399.247 552.121 399.041 552.476 398.287L552.893 398.496C555.743 399.171 568.703 398.867 572.436 398.767L572.436 429.478C569.267 427.269 555.544 416.846 553.213 416.113C552.168 415.875 552.555 416.147 551.955 415.357L551.963 400.04Z"/><path fill="#125BC6" transform="matrix(1.65161 0 0 1.65171 0 -3.05176e-05)" d="M81.5874 89.5954C82.0236 89.9779 82.2283 90.1058 82.5735 90.5764L81.4796 91.9505C80.2047 93.3762 78.5608 95.89 77.6274 97.5905C76.1715 100.151 74.3981 103.089 73.0473 105.66C72.0675 107.032 71.5033 108.408 70.8015 109.936L67.2436 117.735C67.0211 118.232 66.4901 119.33 66.3315 119.804C59.262 138.08 54.7387 154.64 53.1006 174.246C52.7757 178.134 51.9731 184.343 52.327 188.134C52.1649 189.822 52.0122 193.82 52.2572 195.511C52.5538 223.248 57.439 250.744 66.7148 276.885C67.8498 280.151 70.5294 287.928 71.9407 290.918L71.3812 291.12C70.5414 290.707 70.2634 289.769 69.8422 288.884C50.9677 241.754 43.3807 181.191 60.4135 132.474C60.3374 132.118 60.1888 131.669 60.083 131.31L59.4188 131.002C59.9353 129.257 59.7826 128.43 59.548 126.705C60.2888 127.666 60.0215 127.637 60.9574 127.89C61.6884 127.412 61.7687 127.353 62.3914 126.745C65.7178 117.463 70.9897 105.949 76.3225 97.6248L79.7096 92.5274L81.5874 89.5954Z"/><path fill="#E7ECF4" transform="matrix(1.65161 0 0 1.65171 0 -3.05176e-05)" d="M59.548 126.705C60.2888 127.666 60.0215 127.637 60.9574 127.89C61.6884 127.412 61.7687 127.353 62.3914 126.745C61.7437 128.659 61.0843 130.569 60.4135 132.474C60.3374 132.118 60.1888 131.669 60.083 131.31L59.4188 131.002C59.9353 129.257 59.7826 128.43 59.548 126.705Z"/><path fill="#CDE6FB" transform="matrix(1.65161 0 0 1.65171 0 -3.05176e-05)" d="M81.5874 89.5954C78.5338 79.6631 81.1469 73.7456 91.5891 70.852C92.978 70.4728 94.379 70.1392 95.7898 69.8518C96.0697 75.6185 96.7557 81.1902 92.8575 85.9195C89.5458 89.9373 84.2589 88.9523 82.5735 90.5764C82.2283 90.1058 82.0236 89.9779 81.5874 89.5954Z"/><path fill="#CDE6FB" transform="matrix(1.65161 0 0 1.65171 0 -3.05176e-05)" d="M81.4796 91.9505C81.72 92.344 82.0073 93.0257 82.4797 92.9315C87.6715 91.897 90.9594 93.2788 94.992 97.5256C92.5667 99.5991 89.226 102.337 85.8502 102.249C82.0395 102.151 79.7031 98.746 77.6274 97.5905C78.5608 95.89 80.2047 93.3762 81.4796 91.9505Z"/><path fill="#CDE6FB" transform="matrix(1.65161 0 0 1.65171 0 -3.05176e-05)" d="M73.0473 105.66C73.2601 105.976 73.3938 106.426 73.7984 106.386C75.8095 106.19 79.1408 104.835 81.2082 105.364C93.5546 108.523 84.1674 115.994 76.8392 114.348C74.8727 113.907 72.5055 111.348 70.8015 109.936C71.5033 108.408 72.0675 107.032 73.0473 105.66Z"/><path fill="#CDE6FB" transform="matrix(1.65161 0 0 1.65171 0 -3.05176e-05)" d="M52.5355 193.828C57.3336 186.107 61.8064 186.861 68.9832 191.444C62.6312 199.379 60.7502 198.523 52.2572 195.511C52.0122 193.82 52.1649 189.822 52.327 188.134C52.4779 190.123 52.5153 191.83 52.5355 193.828Z"/><path fill="#CDE6FB" transform="matrix(1.65161 0 0 1.65171 0 -3.05176e-05)" d="M76.3225 97.6248C73.5821 95.9319 68.474 95.7637 67.8535 91.1127C67.5494 88.8331 67.9314 84.1873 69.2035 82.3063C71.255 81.7403 76.9011 86.6891 77.378 88.8229C77.6816 90.1812 77.1864 92.5342 78.6336 93.0948L79.7096 92.5274L76.3225 97.6248Z"/><path fill="#CDE6FB" transform="matrix(1.65161 0 0 1.65171 0 -3.05176e-05)" d="M67.2436 117.735C68.1086 118.122 68.504 118.358 69.4677 117.875C76.5789 114.305 79.2194 118.39 83.368 123.777C79.1568 125.898 78.0276 126.254 73.3651 126.424C68.0436 123.734 68.6941 121.709 66.3315 119.804C66.4901 119.33 67.0211 118.232 67.2436 117.735Z"/><path fill="#CDE6FB" transform="matrix(1.65161 0 0 1.65171 0 -3.05176e-05)" d="M37.549 158.777C41.1473 158.464 44.9861 157.805 47.5794 160.348C49.5481 162.28 51.1022 163.963 51.3302 166.841C50.9153 167.964 51.2235 167.606 50.1764 168.185L49.8748 168.3C44.1045 170.445 40.0752 168.353 37.8808 162.514C37.5263 161.571 37.0844 159.685 37.549 158.777Z"/><path fill="#CDE6FB" transform="matrix(1.65161 0 0 1.65171 0 -3.05176e-05)" d="M60.6927 163.79C65.7559 163.388 68.2944 166.115 71.4279 169.629C69.029 171.187 67.7078 171.877 65.1399 173.007C60.1884 174.41 57.1876 171.938 54.4637 168.21C56.4968 165.698 57.7207 164.844 60.6927 163.79Z"/><path fill="#CDE6FB" transform="matrix(1.65161 0 0 1.65171 0 -3.05176e-05)" d="M44.6814 132.071C52.1684 132.617 57.445 137.326 54.6449 145.143C45.7062 146.263 43.6103 139.485 44.6814 132.071Z"/><path fill="#CDE6FB" transform="matrix(1.65161 0 0 1.65171 0 -3.05176e-05)" d="M69.1465 128.418C72.7254 128.227 77.2482 131.669 78.7293 134.894C79.681 136.967 74.4316 137.789 73.024 138.124C67.1096 139.09 65.3176 135.915 62.7867 131.511C65.2265 129.846 66.2912 129.022 69.1465 128.418Z"/><path fill="#CDE6FB" transform="matrix(1.65161 0 0 1.65171 0 -3.05176e-05)" d="M59.611 175.62C64.158 175.281 66.1233 176.479 69.9572 178.782C67.8498 181.409 66.4192 183.077 63.4925 184.796C54.5945 187.343 49.95 178.875 59.611 175.62Z"/><path fill="#CDE6FB" transform="matrix(1.65161 0 0 1.65171 0 -3.05176e-05)" d="M62.4562 152.286C62.7067 152.269 62.9575 152.256 63.2084 152.245C67.4595 152.067 70.1053 154.37 73.0717 157.102C70.7752 159.19 69.3984 160.131 66.5972 161.459C59.148 163.652 52.0178 155.85 62.4562 152.286Z"/><path fill="#CDE6FB" transform="matrix(1.65161 0 0 1.65171 0 -3.05176e-05)" d="M41.5211 144.269C42.5963 144.352 43.6601 144.545 44.6958 144.845C50.9778 146.621 53.4529 151.051 51.3289 157.282C42.0721 159.447 40.889 151.026 41.5211 144.269Z"/><path fill="#CDE6FB" transform="matrix(1.65161 0 0 1.65171 0 -3.05176e-05)" d="M65.659 139.947C70.3866 139.539 73.0537 141.9 76.4074 144.885C73.9553 146.878 72.5864 147.831 69.7002 149.096C64.8574 150.316 62.5786 148.741 59.5786 145.293C61.4332 142.609 62.5284 141.068 65.659 139.947Z"/><path fill="#CDE6FB" transform="matrix(1.65161 0 0 1.65171 0 -3.05176e-05)" d="M35.6008 184.217C43.8217 184.634 48.5101 186.332 47.4559 195.688C38.1068 197.911 36.1785 191.84 35.6008 184.217Z"/><path fill="#CDE6FB" transform="matrix(1.65161 0 0 1.65171 0 -3.05176e-05)" d="M47.3873 119.59C52.8716 119.447 58.2191 120.498 59.548 126.705C59.7826 128.43 59.9353 129.257 59.4188 131.002C56.9756 131.214 55.0608 131.1 52.6457 130.967C48.2635 128.02 47.7838 124.559 47.3873 119.59Z"/><path fill="#CDE6FB" transform="matrix(1.65161 0 0 1.65171 0 -3.05176e-05)" d="M36.7233 171.719C44.1338 171.319 50.211 174.604 48.5788 183.07C45.3649 183.454 42.4376 183.927 39.8225 181.49C37.2968 179.137 36.784 174.972 36.7233 171.719Z"/><path fill="#CDE6FB" transform="matrix(1.65161 0 0 1.65171 0 -3.05176e-05)" d="M51.6699 107.85C56.7154 107.619 63.2179 108.861 63.604 115.447C63.678 116.709 64.1006 117.821 63.3446 118.766C57.4938 119.849 54.7876 119.655 52.1213 113.184C51.6269 111.984 51.0957 109.01 51.6699 107.85Z"/><path fill="#CDE6FB" transform="matrix(1.65161 0 0 1.65171 0 -3.05176e-05)" d="M59.4379 93.3706C64.3378 94.6421 67.133 96.4834 69.1623 101.162C68.8772 103.124 68.8862 105.821 67.9508 107.399C65.4363 108.276 62.1933 107.229 60.6426 105.055C58.0836 101.467 58.8935 97.4101 59.4379 93.3706Z"/><path fill="#125BC6" transform="matrix(1.65161 0 0 1.65171 0 -3.05176e-05)" d="M28.1463 426.053C30.8206 425.503 89.7911 425.561 91.8496 425.963L92.1358 426.671C88.8545 427.245 83.4327 427.099 79.9385 427.102L62.6033 427.109L41.5016 427.106C37.6862 427.109 32.4825 427.269 28.7644 426.96L28.1463 426.053Z"/><path fill="#125BC6" transform="matrix(1.65161 0 0 1.65171 0 -3.05176e-05)" d="M397.841 425.787L398.374 426.013L398.378 426.51C396.927 427.553 373.547 427.079 370.249 427.064L369.584 426.773L369.673 426.236C371.743 425.409 394.059 425.789 397.841 425.787Z"/><path fill="#2473D1" transform="matrix(1.65161 0 0 1.65171 0 -3.05176e-05)" d="M574.829 106.648L575.447 107.089C576.313 109.672 575.014 117.467 573.948 120.114L573.353 119.774C573.165 118.964 574.497 108.256 574.829 106.648Z"/><path fill="#125BC6" transform="matrix(1.65161 0 0 1.65171 0 -3.05176e-05)" d="M487.174 94.2408C487.416 94.3796 487.771 94.5077 487.749 94.7157C487.524 96.8174 486.323 106.366 485.744 107.635L485.061 107.24C484.387 105.227 486.153 96.3767 487.174 94.2408Z"/><path fill="#125BC6" transform="matrix(1.65161 0 0 1.65171 0 -3.05176e-05)" d="M562.09 138.618L562.416 139.246C561.638 141.673 554.712 146.048 552.306 147.29C552.101 147.03 552.136 146.947 552.042 146.585C552.949 145.343 560.125 140.264 562.09 138.618Z"/><path fill="#125BC6" transform="matrix(1.65161 0 0 1.65171 0 -3.05176e-05)" d="M495.547 78.5886L496.001 79.0287C495.813 80.0484 490.3 88.9197 489.287 90.5782L488.811 90.0116C489.09 87.1793 493.496 80.8228 495.547 78.5886Z"/><path fill="#125BC6" transform="matrix(1.65161 0 0 1.65171 0 -3.05176e-05)" d="M501.525 142.194C503.01 142.327 512.798 148.142 513.836 149.249C510.705 149.448 503.256 144.796 501.525 142.194Z"/><path fill="#125BC6" transform="matrix(1.65161 0 0 1.65171 0 -3.05176e-05)" d="M528.359 194.559C528.494 194.61 528.74 194.842 528.869 194.948C528.141 197.3 521.089 201.333 518.696 202.404C518.371 202.258 518.255 202.131 517.967 201.912C518.176 201.117 518.787 201.02 519.557 200.589C522.708 198.825 525.517 196.772 528.359 194.559Z"/><path fill="#125BC6" transform="matrix(1.65161 0 0 1.65171 0 -3.05176e-05)" d="M536.527 178.806C536.654 178.942 536.866 179.333 536.973 179.512C536.65 183.311 534.479 188.484 531.986 191.44L531.719 191.195C531.575 190.098 535.702 180.302 536.527 178.806Z"/><path fill="#125BC6" transform="matrix(1.65161 0 0 1.65171 0 -3.05176e-05)" d="M490.601 128.501C491.579 128.783 498.511 138.113 498.981 139.491L498 139.286C495.442 137.151 491.327 131.761 490.601 128.501Z"/><path fill="#125BC6" transform="matrix(1.65161 0 0 1.65171 0 -3.05176e-05)" d="M509.416 67.4876L509.637 67.9052C509.243 68.6866 500.868 74.7052 499.38 75.8638C499.103 75.6111 499.146 75.588 498.96 75.2342C500.289 72.7241 506.723 68.7473 509.416 67.4876Z"/><path fill="#125BC6" transform="matrix(1.65161 0 0 1.65171 0 -3.05176e-05)" d="M535.182 161.262L535.905 161.887C536.968 164.942 538.271 171.771 537.256 174.753C537.1 174.656 536.761 174.309 536.611 174.166C536.416 172.16 534.942 162.354 535.182 161.262Z"/><path fill="#125BC6" transform="matrix(1.65161 0 0 1.65171 0 -3.05176e-05)" d="M547.742 66.3226C550.512 66.0851 558.562 71.0219 559.53 73.5582C558.45 73.3015 548.551 67.3155 547.742 66.3226Z"/><path fill="#125BC6" transform="matrix(1.65161 0 0 1.65171 0 -3.05176e-05)" d="M571.495 124.178L572.161 124.467C572.68 126.313 567.461 134.044 566.053 135.695C565.775 135.611 565.689 135.473 565.438 135.258C565.552 134.535 570.691 125.937 571.495 124.178Z"/><path fill="#125BC6" transform="matrix(1.65161 0 0 1.65171 0 -3.05176e-05)" d="M562.407 76.2514C564.963 76.9347 570.371 84.7016 570.324 87.4539L569.665 87.1171C568.386 85.0157 562.65 77.253 562.407 76.2514Z"/><path fill="#125BC6" transform="matrix(1.65161 0 0 1.65171 0 -3.05176e-05)" d="M525.094 62.4462L525.554 62.4093L525.954 62.651L526.144 62.4558L526.248 62.9217C525.469 63.4131 516.463 65.6822 514.733 66.1784C513.997 66.3228 514.347 66.3626 513.653 66.029L513.718 65.5686C516.095 63.9979 522.152 62.8934 525.094 62.4462Z"/><path fill="#125BC6" transform="matrix(1.65161 0 0 1.65171 0 -3.05176e-05)" d="M571.815 91.2217C572.081 91.308 572.45 91.5054 572.715 91.6331C574.46 94.5522 575.523 100.875 575.418 104.337L574.889 104.134C574.569 103.695 572.272 92.9348 571.815 91.2217Z"/><path fill="#125BC6" transform="matrix(1.65161 0 0 1.65171 0 -3.05176e-05)" d="M547.112 148.658C547.64 148.645 547.393 148.637 547.939 148.916L547.753 149.32C543.616 151.39 540.7 151.892 536.201 152.468L535.484 152.375L535.541 151.857C536.75 151.24 544.559 149.582 547.112 148.658Z"/><path fill="#125BC6" transform="matrix(1.65161 0 0 1.65171 0 -3.05176e-05)" d="M485.544 111.75L486.274 112.158C487.058 115.638 488.738 121.804 489.307 124.855L488.582 124.431C486.48 121.334 485.513 115.446 485.544 111.75Z"/><path fill="#0D42B7" transform="matrix(1.65161 0 0 1.65171 0 -3.05176e-05)" d="M530.895 62.4787C533.801 62.0542 542.229 62.8692 544.12 65.0984C543.023 65.1611 533.406 63.2665 531.401 63.1468C531.121 63.1301 531.096 62.863 530.895 62.4787Z"/><path fill="#0D42B7" transform="matrix(1.65161 0 0 1.65171 0 -3.05176e-05)" d="M517.849 150.247C520.033 150.571 528.669 151.683 530.204 152.253L530.279 153.059C527.307 152.864 520.184 152.361 517.892 150.989L517.849 150.247Z"/></svg>